<mxfile host="app.diagrams.net" modified="2022-10-02T14:17:36.410Z" agent="5.0 (Macintosh; Intel Mac OS X 10_15_7) AppleWebKit/537.36 (KHTML, like Gecko) Chrome/106.0.0.0 Safari/537.36" etag="ppAOKnKtBnd1W4U-6xmw" version="20.3.7" type="github">
  <diagram id="-mVUZ_WQFZVlIGICRMne" name="Pagina-1">
    <mxGraphModel dx="1186" dy="768" grid="1" gridSize="10" guides="1" tooltips="1" connect="1" arrows="1" fold="1" page="1" pageScale="1" pageWidth="827" pageHeight="1169" math="0" shadow="0">
      <root>
        <mxCell id="0" />
        <mxCell id="1" parent="0" />
        <mxCell id="NEWjJ8IhzMRoBpNZdO0T-3" value="" style="rounded=0;orthogonalLoop=1;jettySize=auto;html=1;fontSize=47;" parent="1" source="NEWjJ8IhzMRoBpNZdO0T-1" target="NEWjJ8IhzMRoBpNZdO0T-2" edge="1">
          <mxGeometry relative="1" as="geometry" />
        </mxCell>
        <mxCell id="NEWjJ8IhzMRoBpNZdO0T-14" value="&lt;font style=&quot;font-size: 29px;&quot;&gt;1&lt;/font&gt;" style="edgeLabel;html=1;align=center;verticalAlign=middle;resizable=0;points=[];fontSize=47;" parent="NEWjJ8IhzMRoBpNZdO0T-3" vertex="1" connectable="0">
          <mxGeometry x="0.1611" y="-2" relative="1" as="geometry">
            <mxPoint as="offset" />
          </mxGeometry>
        </mxCell>
        <mxCell id="NEWjJ8IhzMRoBpNZdO0T-5" value="" style="edgeStyle=none;rounded=0;orthogonalLoop=1;jettySize=auto;html=1;fontSize=47;" parent="1" source="NEWjJ8IhzMRoBpNZdO0T-1" target="NEWjJ8IhzMRoBpNZdO0T-4" edge="1">
          <mxGeometry relative="1" as="geometry" />
        </mxCell>
        <mxCell id="NEWjJ8IhzMRoBpNZdO0T-16" value="2" style="edgeLabel;html=1;align=center;verticalAlign=middle;resizable=0;points=[];fontSize=29;" parent="NEWjJ8IhzMRoBpNZdO0T-5" vertex="1" connectable="0">
          <mxGeometry x="0.1118" y="3" relative="1" as="geometry">
            <mxPoint x="1" as="offset" />
          </mxGeometry>
        </mxCell>
        <mxCell id="NEWjJ8IhzMRoBpNZdO0T-1" value="&lt;font style=&quot;font-size: 47px;&quot;&gt;s&lt;/font&gt;" style="ellipse;whiteSpace=wrap;html=1;aspect=fixed;fillColor=#dae8fc;strokeColor=#6c8ebf;" parent="1" vertex="1">
          <mxGeometry x="180" y="180" width="60" height="60" as="geometry" />
        </mxCell>
        <mxCell id="NEWjJ8IhzMRoBpNZdO0T-2" value="" style="ellipse;whiteSpace=wrap;html=1;aspect=fixed;fillColor=#d5e8d4;strokeColor=#82b366;" parent="1" vertex="1">
          <mxGeometry x="340" y="50" width="60" height="60" as="geometry" />
        </mxCell>
        <mxCell id="NEWjJ8IhzMRoBpNZdO0T-7" value="" style="edgeStyle=none;rounded=0;orthogonalLoop=1;jettySize=auto;html=1;fontSize=47;" parent="1" source="NEWjJ8IhzMRoBpNZdO0T-4" target="NEWjJ8IhzMRoBpNZdO0T-12" edge="1">
          <mxGeometry relative="1" as="geometry">
            <mxPoint x="450.3767810424986" y="365.26028496679965" as="targetPoint" />
          </mxGeometry>
        </mxCell>
        <mxCell id="NEWjJ8IhzMRoBpNZdO0T-17" value="3" style="edgeLabel;html=1;align=center;verticalAlign=middle;resizable=0;points=[];fontSize=29;" parent="NEWjJ8IhzMRoBpNZdO0T-7" vertex="1" connectable="0">
          <mxGeometry x="-0.3284" y="2" relative="1" as="geometry">
            <mxPoint as="offset" />
          </mxGeometry>
        </mxCell>
        <mxCell id="NEWjJ8IhzMRoBpNZdO0T-22" style="edgeStyle=orthogonalEdgeStyle;rounded=0;orthogonalLoop=1;jettySize=auto;html=1;fontSize=29;curved=1;" parent="1" source="NEWjJ8IhzMRoBpNZdO0T-4" target="NEWjJ8IhzMRoBpNZdO0T-2" edge="1">
          <mxGeometry relative="1" as="geometry">
            <Array as="points">
              <mxPoint x="370" y="220" />
              <mxPoint x="370" y="220" />
            </Array>
          </mxGeometry>
        </mxCell>
        <mxCell id="NEWjJ8IhzMRoBpNZdO0T-24" value="-5" style="edgeLabel;html=1;align=center;verticalAlign=middle;resizable=0;points=[];fontSize=29;" parent="NEWjJ8IhzMRoBpNZdO0T-22" vertex="1" connectable="0">
          <mxGeometry x="-0.034" y="-1" relative="1" as="geometry">
            <mxPoint as="offset" />
          </mxGeometry>
        </mxCell>
        <mxCell id="NEWjJ8IhzMRoBpNZdO0T-4" value="" style="ellipse;whiteSpace=wrap;html=1;aspect=fixed;fillColor=#d5e8d4;strokeColor=#82b366;" parent="1" vertex="1">
          <mxGeometry x="340" y="330" width="60" height="60" as="geometry" />
        </mxCell>
        <mxCell id="NEWjJ8IhzMRoBpNZdO0T-19" style="edgeStyle=none;rounded=0;orthogonalLoop=1;jettySize=auto;html=1;fontSize=29;" parent="1" source="NEWjJ8IhzMRoBpNZdO0T-2" target="NEWjJ8IhzMRoBpNZdO0T-12" edge="1">
          <mxGeometry relative="1" as="geometry">
            <mxPoint x="615.3322617863075" y="195.78607664060837" as="sourcePoint" />
          </mxGeometry>
        </mxCell>
        <mxCell id="NEWjJ8IhzMRoBpNZdO0T-20" value="4" style="edgeLabel;html=1;align=center;verticalAlign=middle;resizable=0;points=[];fontSize=29;" parent="NEWjJ8IhzMRoBpNZdO0T-19" vertex="1" connectable="0">
          <mxGeometry x="-0.0871" y="2" relative="1" as="geometry">
            <mxPoint as="offset" />
          </mxGeometry>
        </mxCell>
        <mxCell id="NEWjJ8IhzMRoBpNZdO0T-12" value="" style="ellipse;whiteSpace=wrap;html=1;aspect=fixed;fillColor=#f8cecc;strokeColor=#b85450;" parent="1" vertex="1">
          <mxGeometry x="500" y="180" width="60" height="60" as="geometry" />
        </mxCell>
        <mxCell id="NEWjJ8IhzMRoBpNZdO0T-26" value="" style="rounded=0;orthogonalLoop=1;jettySize=auto;html=1;fontSize=47;" parent="1" source="NEWjJ8IhzMRoBpNZdO0T-30" target="NEWjJ8IhzMRoBpNZdO0T-31" edge="1">
          <mxGeometry relative="1" as="geometry" />
        </mxCell>
        <mxCell id="NEWjJ8IhzMRoBpNZdO0T-27" value="&lt;font style=&quot;font-size: 29px;&quot;&gt;1&lt;/font&gt;" style="edgeLabel;html=1;align=center;verticalAlign=middle;resizable=0;points=[];fontSize=47;" parent="NEWjJ8IhzMRoBpNZdO0T-26" vertex="1" connectable="0">
          <mxGeometry x="0.1611" y="-2" relative="1" as="geometry">
            <mxPoint as="offset" />
          </mxGeometry>
        </mxCell>
        <mxCell id="NEWjJ8IhzMRoBpNZdO0T-28" value="" style="edgeStyle=none;rounded=0;orthogonalLoop=1;jettySize=auto;html=1;fontSize=47;" parent="1" source="NEWjJ8IhzMRoBpNZdO0T-30" target="NEWjJ8IhzMRoBpNZdO0T-36" edge="1">
          <mxGeometry relative="1" as="geometry" />
        </mxCell>
        <mxCell id="NEWjJ8IhzMRoBpNZdO0T-29" value="2" style="edgeLabel;html=1;align=center;verticalAlign=middle;resizable=0;points=[];fontSize=29;" parent="NEWjJ8IhzMRoBpNZdO0T-28" vertex="1" connectable="0">
          <mxGeometry x="0.1118" y="3" relative="1" as="geometry">
            <mxPoint x="1" as="offset" />
          </mxGeometry>
        </mxCell>
        <mxCell id="NEWjJ8IhzMRoBpNZdO0T-30" value="&lt;font style=&quot;font-size: 47px;&quot;&gt;0&lt;/font&gt;" style="ellipse;whiteSpace=wrap;html=1;aspect=fixed;fillColor=#dae8fc;strokeColor=#6c8ebf;" parent="1" vertex="1">
          <mxGeometry x="660" y="180" width="60" height="60" as="geometry" />
        </mxCell>
        <mxCell id="NEWjJ8IhzMRoBpNZdO0T-31" value="&lt;font style=&quot;font-size: 40px;&quot;&gt;-3&lt;/font&gt;" style="ellipse;whiteSpace=wrap;html=1;aspect=fixed;fillColor=#d5e8d4;strokeColor=#82b366;" parent="1" vertex="1">
          <mxGeometry x="820" y="50" width="60" height="60" as="geometry" />
        </mxCell>
        <mxCell id="NEWjJ8IhzMRoBpNZdO0T-32" value="" style="edgeStyle=none;rounded=0;orthogonalLoop=1;jettySize=auto;html=1;fontSize=47;" parent="1" source="NEWjJ8IhzMRoBpNZdO0T-36" target="NEWjJ8IhzMRoBpNZdO0T-39" edge="1">
          <mxGeometry relative="1" as="geometry">
            <mxPoint x="930.3767810424986" y="365.26028496679965" as="targetPoint" />
          </mxGeometry>
        </mxCell>
        <mxCell id="NEWjJ8IhzMRoBpNZdO0T-33" value="3" style="edgeLabel;html=1;align=center;verticalAlign=middle;resizable=0;points=[];fontSize=29;" parent="NEWjJ8IhzMRoBpNZdO0T-32" vertex="1" connectable="0">
          <mxGeometry x="-0.3284" y="2" relative="1" as="geometry">
            <mxPoint as="offset" />
          </mxGeometry>
        </mxCell>
        <mxCell id="NEWjJ8IhzMRoBpNZdO0T-34" style="edgeStyle=orthogonalEdgeStyle;rounded=0;orthogonalLoop=1;jettySize=auto;html=1;fontSize=29;curved=1;" parent="1" source="NEWjJ8IhzMRoBpNZdO0T-36" target="NEWjJ8IhzMRoBpNZdO0T-31" edge="1">
          <mxGeometry relative="1" as="geometry">
            <Array as="points">
              <mxPoint x="850" y="220" />
              <mxPoint x="850" y="220" />
            </Array>
          </mxGeometry>
        </mxCell>
        <mxCell id="NEWjJ8IhzMRoBpNZdO0T-35" value="-5" style="edgeLabel;html=1;align=center;verticalAlign=middle;resizable=0;points=[];fontSize=29;" parent="NEWjJ8IhzMRoBpNZdO0T-34" vertex="1" connectable="0">
          <mxGeometry x="-0.034" y="-1" relative="1" as="geometry">
            <mxPoint as="offset" />
          </mxGeometry>
        </mxCell>
        <mxCell id="NEWjJ8IhzMRoBpNZdO0T-36" value="&lt;font style=&quot;font-size: 40px;&quot;&gt;2&lt;/font&gt;" style="ellipse;whiteSpace=wrap;html=1;aspect=fixed;fillColor=#d5e8d4;strokeColor=#82b366;" parent="1" vertex="1">
          <mxGeometry x="820" y="330" width="60" height="60" as="geometry" />
        </mxCell>
        <mxCell id="NEWjJ8IhzMRoBpNZdO0T-37" style="edgeStyle=none;rounded=0;orthogonalLoop=1;jettySize=auto;html=1;fontSize=29;" parent="1" source="NEWjJ8IhzMRoBpNZdO0T-31" target="NEWjJ8IhzMRoBpNZdO0T-39" edge="1">
          <mxGeometry relative="1" as="geometry">
            <mxPoint x="1095.3322617863075" y="195.78607664060837" as="sourcePoint" />
          </mxGeometry>
        </mxCell>
        <mxCell id="NEWjJ8IhzMRoBpNZdO0T-38" value="4" style="edgeLabel;html=1;align=center;verticalAlign=middle;resizable=0;points=[];fontSize=29;" parent="NEWjJ8IhzMRoBpNZdO0T-37" vertex="1" connectable="0">
          <mxGeometry x="-0.0871" y="2" relative="1" as="geometry">
            <mxPoint as="offset" />
          </mxGeometry>
        </mxCell>
        <mxCell id="NEWjJ8IhzMRoBpNZdO0T-39" value="&lt;font style=&quot;font-size: 49px;&quot;&gt;5&lt;/font&gt;" style="ellipse;whiteSpace=wrap;html=1;aspect=fixed;fillColor=#f8cecc;strokeColor=#b85450;" parent="1" vertex="1">
          <mxGeometry x="980" y="180" width="60" height="60" as="geometry" />
        </mxCell>
        <mxCell id="TGekMmTd6_hD6PIRjoHo-1" value="" style="rounded=0;orthogonalLoop=1;jettySize=auto;html=1;fontSize=47;" edge="1" parent="1" source="TGekMmTd6_hD6PIRjoHo-5" target="TGekMmTd6_hD6PIRjoHo-6">
          <mxGeometry relative="1" as="geometry" />
        </mxCell>
        <mxCell id="TGekMmTd6_hD6PIRjoHo-2" value="&lt;font style=&quot;font-size: 29px;&quot;&gt;1&lt;/font&gt;" style="edgeLabel;html=1;align=center;verticalAlign=middle;resizable=0;points=[];fontSize=47;" vertex="1" connectable="0" parent="TGekMmTd6_hD6PIRjoHo-1">
          <mxGeometry x="0.1611" y="-2" relative="1" as="geometry">
            <mxPoint as="offset" />
          </mxGeometry>
        </mxCell>
        <mxCell id="TGekMmTd6_hD6PIRjoHo-3" value="" style="edgeStyle=none;rounded=0;orthogonalLoop=1;jettySize=auto;html=1;fontSize=47;" edge="1" parent="1" source="TGekMmTd6_hD6PIRjoHo-5" target="TGekMmTd6_hD6PIRjoHo-11">
          <mxGeometry relative="1" as="geometry" />
        </mxCell>
        <mxCell id="TGekMmTd6_hD6PIRjoHo-4" value="2" style="edgeLabel;html=1;align=center;verticalAlign=middle;resizable=0;points=[];fontSize=29;" vertex="1" connectable="0" parent="TGekMmTd6_hD6PIRjoHo-3">
          <mxGeometry x="0.1118" y="3" relative="1" as="geometry">
            <mxPoint x="1" as="offset" />
          </mxGeometry>
        </mxCell>
        <mxCell id="TGekMmTd6_hD6PIRjoHo-5" value="&lt;font style=&quot;font-size: 47px;&quot;&gt;0&lt;/font&gt;" style="ellipse;whiteSpace=wrap;html=1;aspect=fixed;fillColor=#dae8fc;strokeColor=#6c8ebf;" vertex="1" parent="1">
          <mxGeometry x="420" y="530" width="60" height="60" as="geometry" />
        </mxCell>
        <mxCell id="TGekMmTd6_hD6PIRjoHo-6" value="&lt;font style=&quot;font-size: 40px;&quot;&gt;0&lt;/font&gt;" style="ellipse;whiteSpace=wrap;html=1;aspect=fixed;fillColor=#dae8fc;strokeColor=#6c8ebf;" vertex="1" parent="1">
          <mxGeometry x="580" y="400" width="60" height="60" as="geometry" />
        </mxCell>
        <mxCell id="TGekMmTd6_hD6PIRjoHo-7" value="" style="edgeStyle=none;rounded=0;orthogonalLoop=1;jettySize=auto;html=1;fontSize=47;" edge="1" parent="1" source="TGekMmTd6_hD6PIRjoHo-11" target="TGekMmTd6_hD6PIRjoHo-14">
          <mxGeometry relative="1" as="geometry">
            <mxPoint x="690.3767810424986" y="715.2602849667996" as="targetPoint" />
          </mxGeometry>
        </mxCell>
        <mxCell id="TGekMmTd6_hD6PIRjoHo-8" value="3" style="edgeLabel;html=1;align=center;verticalAlign=middle;resizable=0;points=[];fontSize=29;" vertex="1" connectable="0" parent="TGekMmTd6_hD6PIRjoHo-7">
          <mxGeometry x="-0.3284" y="2" relative="1" as="geometry">
            <mxPoint as="offset" />
          </mxGeometry>
        </mxCell>
        <mxCell id="TGekMmTd6_hD6PIRjoHo-11" value="&lt;font style=&quot;font-size: 40px;&quot;&gt;2&lt;/font&gt;" style="ellipse;whiteSpace=wrap;html=1;aspect=fixed;fillColor=#d5e8d4;strokeColor=#82b366;" vertex="1" parent="1">
          <mxGeometry x="580" y="680" width="60" height="60" as="geometry" />
        </mxCell>
        <mxCell id="TGekMmTd6_hD6PIRjoHo-12" style="edgeStyle=none;rounded=0;orthogonalLoop=1;jettySize=auto;html=1;fontSize=29;" edge="1" parent="1" source="TGekMmTd6_hD6PIRjoHo-6" target="TGekMmTd6_hD6PIRjoHo-14">
          <mxGeometry relative="1" as="geometry">
            <mxPoint x="855.3322617863075" y="545.7860766406084" as="sourcePoint" />
          </mxGeometry>
        </mxCell>
        <mxCell id="TGekMmTd6_hD6PIRjoHo-13" value="4" style="edgeLabel;html=1;align=center;verticalAlign=middle;resizable=0;points=[];fontSize=29;" vertex="1" connectable="0" parent="TGekMmTd6_hD6PIRjoHo-12">
          <mxGeometry x="-0.0871" y="2" relative="1" as="geometry">
            <mxPoint as="offset" />
          </mxGeometry>
        </mxCell>
        <mxCell id="TGekMmTd6_hD6PIRjoHo-14" value="&lt;font style=&quot;font-size: 49px;&quot;&gt;4&lt;/font&gt;" style="ellipse;whiteSpace=wrap;html=1;aspect=fixed;fillColor=#d5e8d4;strokeColor=#82b366;" vertex="1" parent="1">
          <mxGeometry x="740" y="530" width="60" height="60" as="geometry" />
        </mxCell>
      </root>
    </mxGraphModel>
  </diagram>
</mxfile>
